# xmcd
#
# Track frame offsets:
#	150
#	19515
#	33970
#	51680
#	67185
#	77962
#	97160
#	112057
#	130540
#	148362
#
# Disc length: 2225 seconds
#
# Revision: 0
# Processed by: cddbd v1.5.2PL0 Copyright (c) Steve Scherf et al.
# Submitted via: audiograbber 1.83.01
#
DISCID=9708af0a
DTITLE=One Bar Town - Boy Scout Songs
DYEAR=2004
DGENRE=Country Rock
TTITLE0=Man From A Steel Town
TTITLE1=30 Skeletons
TTITLE2=Radio Tucson Revisited
TTITLE3=Sorry
TTITLE4=Boy Scout Song
TTITLE5=Johanna
TTITLE6=Brave New Curl
TTITLE7=Elvis In Munich
TTITLE8=Global Rewinding
TTITLE9=Fall Girl
EXTD=
EXTT0=
EXTT1=
EXTT2=
EXTT3=
EXTT4=
EXTT5=
EXTT6=
EXTT7=
EXTT8=
EXTT9=
PLAYORDER=
